<?xml version="1.0" encoding="UTF-8" standalone="no"?>
<svg
   xmlns:dc="http://purl.org/dc/elements/1.1/"
   xmlns:cc="http://creativecommons.org/ns#"
   xmlns:rdf="http://www.w3.org/1999/02/22-rdf-syntax-ns#"
   xmlns:svg="http://www.w3.org/2000/svg"
   xmlns="http://www.w3.org/2000/svg"
   xmlns:sodipodi="http://sodipodi.sourceforge.net/DTD/sodipodi-0.dtd"
   xmlns:inkscape="http://www.inkscape.org/namespaces/inkscape"
   width="950"
   height="966"
   version="1.1"
   id="svg286"
   sodipodi:docname="level4.svg"
   inkscape:version="0.92.1 r15371">
  <metadata
     id="metadata292">
    <rdf:RDF>
      <cc:Work
         rdf:about="">
        <dc:format>image/svg+xml</dc:format>
        <dc:type
           rdf:resource="http://purl.org/dc/dcmitype/StillImage" />
        <dc:title></dc:title>
      </cc:Work>
    </rdf:RDF>
  </metadata>
  <defs
     id="defs290" />
  <sodipodi:namedview
     pagecolor="#ffffff"
     bordercolor="#666666"
     borderopacity="1"
     objecttolerance="10"
     gridtolerance="10"
     guidetolerance="10"
     inkscape:pageopacity="0"
     inkscape:pageshadow="2"
     inkscape:window-width="1920"
     inkscape:window-height="1062"
     id="namedview288"
     showgrid="false"
     fit-margin-top="0"
     fit-margin-left="0"
     fit-margin-right="0"
     fit-margin-bottom="0"
     inkscape:zoom="0.65186407"
     inkscape:cx="451.85156"
     inkscape:cy="458.5"
     inkscape:window-x="0"
     inkscape:window-y="0"
     inkscape:window-maximized="1"
     inkscape:current-layer="svg286" />
  <circle
     cx="768"
     cy="839"
     r="10"
     id="circle2" />
  <circle
     cx="628"
     cy="504"
     r="10"
     id="circle4" />
  <circle
     cx="695"
     cy="489"
     r="10"
     id="circle6" />
  <circle
     cx="456"
     cy="515"
     r="10"
     id="circle8" />
  <circle
     cx="560"
     cy="146"
     r="10"
     id="circle10" />
  <circle
     cx="816"
     cy="869"
     r="10"
     id="circle12" />
  <circle
     cx="848"
     cy="189"
     r="10"
     id="circle14" />
  <circle
     cx="453"
     cy="485"
     r="10"
     id="circle16" />
  <circle
     cx="87"
     cy="844"
     r="10"
     id="circle18" />
  <circle
     cx="607"
     cy="95"
     r="10"
     id="circle20" />
  <circle
     cx="389"
     cy="535"
     r="10"
     id="circle22" />
  <circle
     cx="482"
     cy="519"
     r="10"
     id="circle24" />
  <circle
     cx="128"
     cy="360"
     r="10"
     id="circle26" />
  <circle
     cx="179"
     cy="771"
     r="10"
     id="circle28" />
  <circle
     cx="746"
     cy="742"
     r="10"
     id="circle30" />
  <circle
     cx="770"
     cy="898"
     r="10"
     id="circle32" />
  <circle
     cx="740"
     cy="171"
     r="10"
     id="circle34" />
  <circle
     cx="734"
     cy="205"
     r="10"
     id="circle36" />
  <circle
     cx="795"
     cy="827"
     r="10"
     id="circle38" />
  <circle
     cx="889"
     cy="179"
     r="10"
     id="circle40" />
  <circle
     cx="127"
     cy="855"
     r="10"
     id="circle42" />
  <circle
     cx="609"
     cy="499"
     r="10"
     id="circle44" />
  <circle
     cx="51"
     cy="276"
     r="10"
     id="circle46" />
  <circle
     cx="310"
     cy="950"
     r="10"
     id="circle48" />
  <circle
     cx="345"
     cy="465"
     r="10"
     id="circle50" />
  <circle
     cx="751"
     cy="940"
     r="10"
     id="circle52" />
  <circle
     cx="466"
     cy="200"
     r="10"
     id="circle54" />
  <circle
     cx="328"
     cy="486"
     r="10"
     id="circle56" />
  <circle
     cx="99"
     cy="293"
     r="10"
     id="circle58" />
  <circle
     cx="669"
     cy="625"
     r="10"
     id="circle60" />
  <circle
     cx="615"
     cy="610"
     r="10"
     id="circle62" />
  <circle
     cx="763"
     cy="292"
     r="10"
     id="circle64" />
  <circle
     cx="702"
     cy="164"
     r="10"
     id="circle66" />
  <circle
     cx="871"
     cy="336"
     r="10"
     id="circle68" />
  <circle
     cx="302"
     cy="149"
     r="10"
     id="circle70" />
  <circle
     cx="830"
     cy="261"
     r="10"
     id="circle72" />
  <circle
     cx="10"
     cy="353"
     r="10"
     id="circle74" />
  <circle
     cx="751"
     cy="228"
     r="10"
     id="circle76" />
  <circle
     cx="923"
     cy="886"
     r="10"
     id="circle78" />
  <circle
     cx="940"
     cy="864"
     r="10"
     id="circle80" />
  <circle
     cx="153"
     cy="902"
     r="10"
     id="circle82" />
  <circle
     cx="737"
     cy="84"
     r="10"
     id="circle84" />
  <circle
     cx="772"
     cy="196"
     r="10"
     id="circle86" />
  <circle
     cx="354"
     cy="867"
     r="10"
     id="circle88" />
  <circle
     cx="72"
     cy="358"
     r="10"
     id="circle90" />
  <circle
     cx="905"
     cy="750"
     r="10"
     id="circle92" />
  <circle
     cx="406"
     cy="556"
     r="10"
     id="circle94" />
  <circle
     cx="437"
     cy="166"
     r="10"
     id="circle96" />
  <circle
     cx="130"
     cy="867"
     r="10"
     id="circle98" />
  <circle
     cx="661"
     cy="151"
     r="10"
     id="circle100" />
  <circle
     cx="804"
     cy="809"
     r="10"
     id="circle102" />
  <circle
     cx="391"
     cy="165"
     r="10"
     id="circle104" />
  <circle
     cx="801"
     cy="792"
     r="10"
     id="circle106" />
  <circle
     cx="544"
     cy="668"
     r="10"
     id="circle108" />
  <circle
     cx="828"
     cy="204"
     r="10"
     id="circle110" />
  <circle
     cx="20"
     cy="885"
     r="10"
     id="circle112" />
  <circle
     cx="777"
     cy="897"
     r="10"
     id="circle114" />
  <circle
     cx="140"
     cy="408"
     r="10"
     id="circle116" />
  <circle
     cx="624"
     cy="118"
     r="10"
     id="circle118" />
  <circle
     cx="432"
     cy="500"
     r="10"
     id="circle120" />
  <circle
     cx="146"
     cy="821"
     r="10"
     id="circle122" />
  <circle
     cx="61"
     cy="924"
     r="10"
     id="circle124" />
  <circle
     cx="289"
     cy="894"
     r="10"
     id="circle126" />
  <circle
     cx="828"
     cy="835"
     r="10"
     id="circle128" />
  <circle
     cx="807"
     cy="224"
     r="10"
     id="circle130" />
  <circle
     cx="349"
     cy="286"
     r="10"
     id="circle132" />
  <circle
     cx="459"
     cy="218"
     r="10"
     id="circle134" />
  <circle
     cx="612"
     cy="204"
     r="10"
     id="circle136" />
  <circle
     cx="385"
     cy="208"
     r="10"
     id="circle138" />
  <circle
     cx="525"
     cy="530"
     r="10"
     id="circle140" />
  <circle
     cx="827"
     cy="825"
     r="10"
     id="circle142" />
  <circle
     cx="68"
     cy="783"
     r="10"
     id="circle144" />
  <circle
     cx="558"
     cy="501"
     r="10"
     id="circle146" />
  <circle
     cx="900"
     cy="775"
     r="10"
     id="circle148" />
  <circle
     cx="752"
     cy="840"
     r="10"
     id="circle150" />
  <circle
     cx="846"
     cy="922"
     r="10"
     id="circle152" />
  <circle
     cx="930"
     cy="258"
     r="10"
     id="circle154" />
  <circle
     cx="350"
     cy="362"
     r="10"
     id="circle156" />
  <circle
     cx="899"
     cy="176"
     r="10"
     id="circle158" />
  <circle
     cx="408"
     cy="503"
     r="10"
     id="circle160" />
  <circle
     cx="151"
     cy="825"
     r="10"
     id="circle162" />
  <circle
     cx="420"
     cy="943"
     r="10"
     id="circle164" />
  <circle
     cx="641"
     cy="506"
     r="10"
     id="circle166" />
  <circle
     cx="312"
     cy="767"
     r="10"
     id="circle168" />
  <circle
     cx="299"
     cy="843"
     r="10"
     id="circle170" />
  <circle
     cx="85"
     cy="266"
     r="10"
     id="circle172" />
  <circle
     cx="567"
     cy="604"
     r="10"
     id="circle174" />
  <circle
     cx="172"
     cy="279"
     r="10"
     id="circle176" />
  <circle
     cx="920"
     cy="304"
     r="10"
     id="circle178" />
  <circle
     cx="517"
     cy="498"
     r="10"
     id="circle180" />
  <circle
     cx="772"
     cy="255"
     r="10"
     id="circle182" />
  <circle
     cx="891"
     cy="191"
     r="10"
     id="circle184" />
  <circle
     cx="51"
     cy="336"
     r="10"
     id="circle186" />
  <circle
     cx="696"
     cy="553"
     r="10"
     id="circle188" />
  <circle
     cx="612"
     cy="561"
     r="10"
     id="circle190" />
  <circle
     cx="432"
     cy="325"
     r="10"
     id="circle192" />
  <circle
     cx="515"
     cy="586"
     r="10"
     id="circle194" />
  <circle
     cx="528"
     cy="557"
     r="10"
     id="circle196" />
  <circle
     cx="856"
     cy="745"
     r="10"
     id="circle198" />
  <circle
     cx="158"
     cy="805"
     r="10"
     id="circle200" />
  <circle
     cx="275"
     cy="789"
     r="10"
     id="circle202" />
  <circle
     cx="850"
     cy="193"
     r="10"
     id="circle204" />
  <circle
     cx="164"
     cy="888"
     r="10"
     id="circle206" />
  <circle
     cx="905"
     cy="810"
     r="10"
     id="circle208" />
  <circle
     cx="904"
     cy="907"
     r="10"
     id="circle210" />
  <circle
     cx="534"
     cy="549"
     r="10"
     id="circle212" />
  <circle
     cx="622"
     cy="639"
     r="10"
     id="circle214" />
  <circle
     cx="404"
     cy="439"
     r="10"
     id="circle216" />
  <circle
     cx="138"
     cy="354"
     r="10"
     id="circle218" />
  <circle
     cx="910"
     cy="879"
     r="10"
     id="circle220" />
  <circle
     cx="567"
     cy="638"
     r="10"
     id="circle222" />
  <circle
     cx="180"
     cy="412"
     r="10"
     id="circle224" />
  <circle
     cx="122"
     cy="249"
     r="10"
     id="circle226" />
  <circle
     cx="707"
     cy="555"
     r="10"
     id="circle228" />
  <circle
     cx="929"
     cy="834"
     r="10"
     id="circle230" />
  <circle
     cx="442"
     cy="212"
     r="10"
     id="circle232" />
  <circle
     cx="336"
     cy="177"
     r="10"
     id="circle234" />
  <circle
     cx="342"
     cy="774"
     r="10"
     id="circle236" />
  <circle
     cx="706"
     cy="10"
     r="10"
     id="circle238" />
  <circle
     cx="396"
     cy="400"
     r="10"
     id="circle240" />
  <circle
     cx="625"
     cy="46"
     r="10"
     id="circle242" />
  <circle
     cx="790"
     cy="836"
     r="10"
     id="circle244" />
  <circle
     cx="670"
     cy="557"
     r="10"
     id="circle246" />
  <circle
     cx="137"
     cy="807"
     r="10"
     id="circle248" />
  <circle
     cx="96"
     cy="939"
     r="10"
     id="circle250" />
  <circle
     cx="456"
     cy="281"
     r="10"
     id="circle252" />
  <circle
     cx="606"
     cy="106"
     r="10"
     id="circle254" />
  <circle
     cx="870"
     cy="925"
     r="10"
     id="circle256" />
  <circle
     cx="339"
     cy="764"
     r="10"
     id="circle258" />
  <circle
     cx="73"
     cy="346"
     r="10"
     id="circle260" />
  <circle
     cx="757"
     cy="797"
     r="10"
     id="circle262" />
  <circle
     cx="259"
     cy="956"
     r="10"
     id="circle264" />
  <circle
     cx="903"
     cy="794"
     r="10"
     id="circle266" />
  <circle
     cx="803"
     cy="744"
     r="10"
     id="circle268" />
  <circle
     cx="786"
     cy="851"
     r="10"
     id="circle270" />
  <circle
     cx="807"
     cy="864"
     r="10"
     id="circle272" />
  <circle
     cx="742"
     cy="351"
     r="10"
     id="circle274" />
  <circle
     cx="777"
     cy="788"
     r="10"
     id="circle276" />
  <circle
     cx="462"
     cy="365"
     r="10"
     id="circle278" />
  <circle
     cx="139"
     cy="797"
     r="10"
     id="circle280" />
  <circle
     cx="394"
     cy="782"
     r="10"
     id="circle282" />
  <circle
     cx="552"
     cy="594"
     r="10"
     id="circle284" />
</svg>
